<mxfile host="app.diagrams.net" agent="Mozilla/5.0 (Linux; Android 10; K) AppleWebKit/537.36 (KHTML, like Gecko) Chrome/140.0.0.0 Safari/537.36" version="28.2.2">
  <diagram name="P치gina-1" id="VEMTJO1QmuTIHDQOLhU3">
    <mxGraphModel grid="1" page="1" gridSize="10" guides="1" tooltips="1" connect="1" arrows="1" fold="1" pageScale="1" pageWidth="827" pageHeight="1169" math="0" shadow="0">
      <root>
        <mxCell id="0" />
        <mxCell id="1" parent="0" />
        <mxCell id="W0kC2ISCpiotQl5GsNc8-69" style="edgeStyle=orthogonalEdgeStyle;rounded=0;orthogonalLoop=1;jettySize=auto;html=1;" edge="1" parent="1" source="W0kC2ISCpiotQl5GsNc8-1" target="W0kC2ISCpiotQl5GsNc8-35">
          <mxGeometry relative="1" as="geometry" />
        </mxCell>
        <mxCell id="W0kC2ISCpiotQl5GsNc8-70" style="edgeStyle=orthogonalEdgeStyle;rounded=0;orthogonalLoop=1;jettySize=auto;html=1;" edge="1" parent="1" source="W0kC2ISCpiotQl5GsNc8-1" target="W0kC2ISCpiotQl5GsNc8-36">
          <mxGeometry relative="1" as="geometry" />
        </mxCell>
        <mxCell id="W0kC2ISCpiotQl5GsNc8-71" style="edgeStyle=orthogonalEdgeStyle;rounded=0;orthogonalLoop=1;jettySize=auto;html=1;" edge="1" parent="1" source="W0kC2ISCpiotQl5GsNc8-1" target="W0kC2ISCpiotQl5GsNc8-37">
          <mxGeometry relative="1" as="geometry" />
        </mxCell>
        <mxCell id="W0kC2ISCpiotQl5GsNc8-73" style="edgeStyle=orthogonalEdgeStyle;rounded=0;orthogonalLoop=1;jettySize=auto;html=1;" edge="1" parent="1" source="W0kC2ISCpiotQl5GsNc8-1" target="W0kC2ISCpiotQl5GsNc8-39">
          <mxGeometry relative="1" as="geometry" />
        </mxCell>
        <mxCell id="W0kC2ISCpiotQl5GsNc8-74" style="edgeStyle=orthogonalEdgeStyle;rounded=0;orthogonalLoop=1;jettySize=auto;html=1;" edge="1" parent="1" source="W0kC2ISCpiotQl5GsNc8-1" target="W0kC2ISCpiotQl5GsNc8-41">
          <mxGeometry relative="1" as="geometry" />
        </mxCell>
        <mxCell id="W0kC2ISCpiotQl5GsNc8-81" style="edgeStyle=orthogonalEdgeStyle;rounded=0;orthogonalLoop=1;jettySize=auto;html=1;" edge="1" parent="1" source="W0kC2ISCpiotQl5GsNc8-1" target="W0kC2ISCpiotQl5GsNc8-34">
          <mxGeometry relative="1" as="geometry">
            <Array as="points">
              <mxPoint x="910" y="360" />
            </Array>
          </mxGeometry>
        </mxCell>
        <mxCell id="W0kC2ISCpiotQl5GsNc8-82" style="edgeStyle=orthogonalEdgeStyle;rounded=0;orthogonalLoop=1;jettySize=auto;html=1;" edge="1" parent="1" source="W0kC2ISCpiotQl5GsNc8-1" target="W0kC2ISCpiotQl5GsNc8-38">
          <mxGeometry relative="1" as="geometry" />
        </mxCell>
        <mxCell id="W0kC2ISCpiotQl5GsNc8-1" value="aluno" style="shape=umlActor;verticalLabelPosition=bottom;verticalAlign=top;html=1;" vertex="1" parent="1">
          <mxGeometry x="830" y="330" width="30" height="60" as="geometry" />
        </mxCell>
        <mxCell id="W0kC2ISCpiotQl5GsNc8-62" style="edgeStyle=orthogonalEdgeStyle;rounded=0;orthogonalLoop=1;jettySize=auto;html=1;" edge="1" parent="1" source="W0kC2ISCpiotQl5GsNc8-2" target="W0kC2ISCpiotQl5GsNc8-30">
          <mxGeometry relative="1" as="geometry" />
        </mxCell>
        <mxCell id="W0kC2ISCpiotQl5GsNc8-2" value="Administrador" style="shape=umlActor;verticalLabelPosition=bottom;verticalAlign=top;html=1;" vertex="1" parent="1">
          <mxGeometry y="340" width="30" height="60" as="geometry" />
        </mxCell>
        <mxCell id="W0kC2ISCpiotQl5GsNc8-75" style="edgeStyle=orthogonalEdgeStyle;rounded=0;orthogonalLoop=1;jettySize=auto;html=1;" edge="1" parent="1" source="W0kC2ISCpiotQl5GsNc8-4" target="W0kC2ISCpiotQl5GsNc8-40">
          <mxGeometry relative="1" as="geometry">
            <Array as="points">
              <mxPoint x="700" y="380" />
            </Array>
          </mxGeometry>
        </mxCell>
        <mxCell id="W0kC2ISCpiotQl5GsNc8-76" style="edgeStyle=orthogonalEdgeStyle;rounded=0;orthogonalLoop=1;jettySize=auto;html=1;" edge="1" parent="1" source="W0kC2ISCpiotQl5GsNc8-4" target="W0kC2ISCpiotQl5GsNc8-32">
          <mxGeometry relative="1" as="geometry" />
        </mxCell>
        <mxCell id="W0kC2ISCpiotQl5GsNc8-4" value="Professor" style="shape=umlActor;verticalLabelPosition=bottom;verticalAlign=top;html=1;" vertex="1" parent="1">
          <mxGeometry x="540" y="340" width="30" height="60" as="geometry" />
        </mxCell>
        <mxCell id="W0kC2ISCpiotQl5GsNc8-47" style="edgeStyle=orthogonalEdgeStyle;rounded=0;orthogonalLoop=1;jettySize=auto;html=1;" edge="1" parent="1" source="W0kC2ISCpiotQl5GsNc8-5" target="W0kC2ISCpiotQl5GsNc8-31">
          <mxGeometry relative="1" as="geometry" />
        </mxCell>
        <mxCell id="W0kC2ISCpiotQl5GsNc8-5" value="Usu치rio" style="shape=umlActor;verticalLabelPosition=bottom;verticalAlign=top;html=1;" vertex="1" parent="1">
          <mxGeometry x="399" y="170" width="30" height="60" as="geometry" />
        </mxCell>
        <mxCell id="W0kC2ISCpiotQl5GsNc8-67" style="edgeStyle=orthogonalEdgeStyle;rounded=0;orthogonalLoop=1;jettySize=auto;html=1;" edge="1" parent="1" source="W0kC2ISCpiotQl5GsNc8-6" target="W0kC2ISCpiotQl5GsNc8-33">
          <mxGeometry relative="1" as="geometry" />
        </mxCell>
        <mxCell id="W0kC2ISCpiotQl5GsNc8-6" value="Recepcionista" style="shape=umlActor;verticalLabelPosition=bottom;verticalAlign=top;html=1;" vertex="1" parent="1">
          <mxGeometry x="261.25" y="340" width="30" height="60" as="geometry" />
        </mxCell>
        <mxCell id="W0kC2ISCpiotQl5GsNc8-14" style="edgeStyle=orthogonalEdgeStyle;rounded=0;orthogonalLoop=1;jettySize=auto;html=1;entryX=0.5;entryY=0;entryDx=0;entryDy=0;entryPerimeter=0;endArrow=block;endFill=0;" edge="1" parent="1" source="W0kC2ISCpiotQl5GsNc8-1" target="W0kC2ISCpiotQl5GsNc8-5">
          <mxGeometry relative="1" as="geometry" />
        </mxCell>
        <mxCell id="W0kC2ISCpiotQl5GsNc8-16" style="edgeStyle=orthogonalEdgeStyle;rounded=0;orthogonalLoop=1;jettySize=auto;html=1;entryX=0.5;entryY=0;entryDx=0;entryDy=0;entryPerimeter=0;endArrow=block;endFill=0;" edge="1" parent="1" source="W0kC2ISCpiotQl5GsNc8-6" target="W0kC2ISCpiotQl5GsNc8-5">
          <mxGeometry relative="1" as="geometry" />
        </mxCell>
        <mxCell id="W0kC2ISCpiotQl5GsNc8-17" style="edgeStyle=orthogonalEdgeStyle;rounded=0;orthogonalLoop=1;jettySize=auto;html=1;entryX=0.5;entryY=0;entryDx=0;entryDy=0;entryPerimeter=0;endArrow=block;endFill=0;" edge="1" parent="1" source="W0kC2ISCpiotQl5GsNc8-4" target="W0kC2ISCpiotQl5GsNc8-5">
          <mxGeometry relative="1" as="geometry">
            <Array as="points">
              <mxPoint x="488" y="380" />
              <mxPoint x="488" y="150" />
              <mxPoint x="420" y="150" />
            </Array>
          </mxGeometry>
        </mxCell>
        <mxCell id="W0kC2ISCpiotQl5GsNc8-18" style="edgeStyle=orthogonalEdgeStyle;rounded=0;orthogonalLoop=1;jettySize=auto;html=1;entryX=0.5;entryY=0;entryDx=0;entryDy=0;entryPerimeter=0;endArrow=block;endFill=0;" edge="1" parent="1" source="W0kC2ISCpiotQl5GsNc8-2" target="W0kC2ISCpiotQl5GsNc8-5">
          <mxGeometry relative="1" as="geometry" />
        </mxCell>
        <mxCell id="W0kC2ISCpiotQl5GsNc8-29" value="Sistema CliniSys-Escola" style="rounded=0;whiteSpace=wrap;html=1;fillColor=none;" vertex="1" parent="1">
          <mxGeometry x="-80" y="490" width="1495" height="430" as="geometry" />
        </mxCell>
        <mxCell id="W0kC2ISCpiotQl5GsNc8-30" value="&lt;font size=&quot;1&quot;&gt;Gerenciar usu치rios&lt;/font&gt;" style="ellipse;html=1;whiteSpace=wrap;" vertex="1" parent="1">
          <mxGeometry x="-20" y="619.38" width="70" height="60" as="geometry" />
        </mxCell>
        <mxCell id="W0kC2ISCpiotQl5GsNc8-31" value="Fazer login" style="ellipse;html=1;whiteSpace=wrap;" vertex="1" parent="1">
          <mxGeometry x="390" y="544.38" width="60" height="60" as="geometry" />
        </mxCell>
        <mxCell id="uc-alterar-senha" value="Alterar senha" style="ellipse;html=1;whiteSpace=wrap;" vertex="1" parent="1">
          <mxGeometry x="380" y="620" width="80" height="50" as="geometry" />
        </mxCell>
        <mxCell id="edge-user-alterar" style="edgeStyle=orthogonalEdgeStyle;rounded=0;orthogonalLoop=1;jettySize=auto;html=1;" edge="1" parent="1" source="W0kC2ISCpiotQl5GsNc8-5" target="uc-alterar-senha">
          <mxGeometry relative="1" as="geometry" />
        </mxCell>
        <mxCell id="uc-logout" value="Logout" style="ellipse;html=1;whiteSpace=wrap;" vertex="1" parent="1">
          <mxGeometry x="390" y="690" width="60" height="50" as="geometry" />
        </mxCell>
        <mxCell id="edge-user-logout" style="edgeStyle=orthogonalEdgeStyle;rounded=0;orthogonalLoop=1;jettySize=auto;html=1;" edge="1" parent="1" source="W0kC2ISCpiotQl5GsNc8-5" target="uc-logout">
          <mxGeometry relative="1" as="geometry" />
        </mxCell>
        <mxCell id="W0kC2ISCpiotQl5GsNc8-32" value="&lt;br&gt;Gerar relat칩rio de atendimentos&lt;div&gt;&lt;br&gt;&lt;/div&gt;" style="ellipse;html=1;whiteSpace=wrap;" vertex="1" parent="1">
          <mxGeometry x="507.5" y="604.38" width="95" height="75" as="geometry" />
        </mxCell>
        <mxCell id="W0kC2ISCpiotQl5GsNc8-33" value="&lt;font style=&quot;font-size: 12px;&quot;&gt;Cadastrar pacientes na fila para triagem&lt;/font&gt;" style="ellipse;html=1;whiteSpace=wrap;" vertex="1" parent="1">
          <mxGeometry x="230" y="609.38" width="92.5" height="80" as="geometry" />
        </mxCell>
        <mxCell id="uc-gerenciar-pacientes" value="Gerenciar pacientes (CRUD)" style="ellipse;html=1;whiteSpace=wrap;" vertex="1" parent="1">
          <mxGeometry x="120" y="720" width="140" height="70" as="geometry" />
        </mxCell>
        <mxCell id="edge-rec-gerenciar-pac" style="edgeStyle=orthogonalEdgeStyle;rounded=0;orthogonalLoop=1;jettySize=auto;html=1;" edge="1" parent="1" source="W0kC2ISCpiotQl5GsNc8-6" target="uc-gerenciar-pacientes">
          <mxGeometry relative="1" as="geometry" />
        </mxCell>
        <mxCell id="W0kC2ISCpiotQl5GsNc8-34" value="&lt;div&gt;&amp;nbsp; &amp;nbsp; &amp;nbsp;Consultar fila&amp;nbsp; &amp;nbsp; &amp;nbsp; de pacientes&lt;/div&gt;&lt;div&gt;para triagem e consulta&lt;/div&gt;" style="ellipse;html=1;whiteSpace=wrap;" vertex="1" parent="1">
          <mxGeometry x="850" y="740" width="120" height="90" as="geometry" />
        </mxCell>
        <mxCell id="W0kC2ISCpiotQl5GsNc8-35" value="Realizar triagem de paciente" style="ellipse;html=1;whiteSpace=wrap;" vertex="1" parent="1">
          <mxGeometry x="1130" y="590" width="80" height="70" as="geometry" />
        </mxCell>
        <mxCell id="W0kC2ISCpiotQl5GsNc8-36" value="Agendar atendimento" style="ellipse;html=1;whiteSpace=wrap;" vertex="1" parent="1">
          <mxGeometry x="1020" y="590" width="100" height="75" as="geometry" />
        </mxCell>
        <mxCell id="W0kC2ISCpiotQl5GsNc8-37" value="&lt;div&gt;Consultar atendimentos&lt;/div&gt;&lt;div&gt;agendados&lt;/div&gt;" style="ellipse;html=1;whiteSpace=wrap;" vertex="1" parent="1">
          <mxGeometry x="797.5" y="600" width="95" height="83.75" as="geometry" />
        </mxCell>
        <mxCell id="W0kC2ISCpiotQl5GsNc8-38" value="Registrar procedimentos em consulta" style="ellipse;html=1;whiteSpace=wrap;" vertex="1" parent="1">
          <mxGeometry x="1220" y="590" width="90" height="80" as="geometry" />
        </mxCell>
        <mxCell id="W0kC2ISCpiotQl5GsNc8-39" value="&lt;br&gt;&lt;div align=&quot;center&quot;&gt;Atualizar situa칞칚o do paciente&lt;br&gt;&lt;br&gt;&lt;/div&gt;" style="ellipse;html=1;whiteSpace=wrap;align=center;" vertex="1" parent="1">
          <mxGeometry x="920" y="595" width="90" height="70" as="geometry" />
        </mxCell>
        <mxCell id="W0kC2ISCpiotQl5GsNc8-40" value="Autorizar alta/ desvincula칞칚o de pacientes&amp;nbsp;" style="ellipse;html=1;whiteSpace=wrap;" vertex="1" parent="1">
          <mxGeometry x="650" y="595" width="110" height="87.5" as="geometry" />
        </mxCell>
        <mxCell id="W0kC2ISCpiotQl5GsNc8-41" value="Buscar paciente" style="ellipse;html=1;whiteSpace=wrap;" vertex="1" parent="1">
          <mxGeometry x="1290" y="770" width="80" height="70" as="geometry" />
        </mxCell>
        <mxCell id="W0kC2ISCpiotQl5GsNc8-42" value="Registrar desist칡ncia por falta" style="ellipse;html=1;whiteSpace=wrap;" vertex="1" parent="1">
          <mxGeometry x="1030" y="760" width="80" height="70" as="geometry" />
        </mxCell>
        <mxCell id="W0kC2ISCpiotQl5GsNc8-77" value="" style="endArrow=open;html=1;rounded=0;dashed=1;endFill=0;exitX=0.656;exitY=0.992;exitDx=0;exitDy=0;exitPerimeter=0;" edge="1" parent="1" source="W0kC2ISCpiotQl5GsNc8-36" target="W0kC2ISCpiotQl5GsNc8-41">
          <mxGeometry width="50" height="50" relative="1" as="geometry">
            <mxPoint x="1080" y="660" as="sourcePoint" />
            <mxPoint x="1030" y="620" as="targetPoint" />
          </mxGeometry>
        </mxCell>
        <mxCell id="W0kC2ISCpiotQl5GsNc8-78" value="Include" style="edgeLabel;html=1;align=center;verticalAlign=middle;resizable=0;points=[];" vertex="1" connectable="0" parent="W0kC2ISCpiotQl5GsNc8-77">
          <mxGeometry x="-0.22" y="1" relative="1" as="geometry">
            <mxPoint y="1" as="offset" />
          </mxGeometry>
        </mxCell>
        <mxCell id="W0kC2ISCpiotQl5GsNc8-79" value="" style="endArrow=open;html=1;rounded=0;dashed=1;endFill=0;exitX=0.5;exitY=1;exitDx=0;exitDy=0;entryX=0.215;entryY=0.114;entryDx=0;entryDy=0;entryPerimeter=0;" edge="1" parent="1" source="W0kC2ISCpiotQl5GsNc8-35" target="W0kC2ISCpiotQl5GsNc8-41">
          <mxGeometry width="50" height="50" relative="1" as="geometry">
            <mxPoint x="1040" y="620" as="sourcePoint" />
            <mxPoint x="1169" y="713" as="targetPoint" />
          </mxGeometry>
        </mxCell>
        <mxCell id="W0kC2ISCpiotQl5GsNc8-80" value="Include" style="edgeLabel;html=1;align=center;verticalAlign=middle;resizable=0;points=[];" vertex="1" connectable="0" parent="W0kC2ISCpiotQl5GsNc8-79">
          <mxGeometry x="-0.22" y="1" relative="1" as="geometry">
            <mxPoint y="1" as="offset" />
          </mxGeometry>
        </mxCell>
        <mxCell id="W0kC2ISCpiotQl5GsNc8-83" value="" style="endArrow=open;html=1;rounded=0;dashed=1;endFill=0;exitX=0.5;exitY=1;exitDx=0;exitDy=0;" edge="1" parent="1" source="W0kC2ISCpiotQl5GsNc8-38" target="W0kC2ISCpiotQl5GsNc8-41">
          <mxGeometry width="50" height="50" relative="1" as="geometry">
            <mxPoint x="1189" y="654" as="sourcePoint" />
            <mxPoint x="1230" y="746" as="targetPoint" />
          </mxGeometry>
        </mxCell>
        <mxCell id="W0kC2ISCpiotQl5GsNc8-84" value="Include" style="edgeLabel;html=1;align=center;verticalAlign=middle;resizable=0;points=[];" vertex="1" connectable="0" parent="W0kC2ISCpiotQl5GsNc8-83">
          <mxGeometry x="-0.22" y="1" relative="1" as="geometry">
            <mxPoint y="1" as="offset" />
          </mxGeometry>
        </mxCell>
        <mxCell id="W0kC2ISCpiotQl5GsNc8-85" value="" style="endArrow=open;html=1;rounded=0;dashed=1;endFill=0;" edge="1" parent="1" source="W0kC2ISCpiotQl5GsNc8-42" target="W0kC2ISCpiotQl5GsNc8-39">
          <mxGeometry width="50" height="50" relative="1" as="geometry">
            <mxPoint x="1047" y="840" as="sourcePoint" />
            <mxPoint x="1010" y="938" as="targetPoint" />
          </mxGeometry>
        </mxCell>
        <mxCell id="W0kC2ISCpiotQl5GsNc8-86" value="Extend" style="edgeLabel;html=1;align=center;verticalAlign=middle;resizable=0;points=[];" vertex="1" connectable="0" parent="W0kC2ISCpiotQl5GsNc8-85">
          <mxGeometry x="-0.22" y="1" relative="1" as="geometry">
            <mxPoint y="1" as="offset" />
          </mxGeometry>
        </mxCell>
      </root>
    </mxGraphModel>
  </diagram>
</mxfile>
